# xmcd CD database file
# Copyright (C) 1993-1996 Ti Kan
#
# Track frame offsets:
#  150
#  19165
#  36250
#
# Disc length: 810 seconds
#
# Revision: 3
# Processed by: cddbd v1.5.2PL0 Copyright (c) Steve Scherf et al.
# Submitted via: Advanced CD Ripper Pro 2.0
#
DISCID=1d032803
DTITLE=Keith Sweat - Nobody (Single)
DYEAR=1996
DGENRE=RB
TTITLE0=Nobody (Radio Edit)
TTITLE1=In the Mood (LP Version)
TTITLE2=Why Me Baby
EXTD=
EXTT0=
EXTT1=
EXTT2=
PLAYORDER=
